# AST/ASF file generated using VICON BodyLanguage
# -----------------------------------------------
:version 1.10
:name VICON
:units
  mass 1.0
  length 0.45
  angle deg
:documentation
   .ast/.asf automatically generated from VICON data using
   VICON BodyBuilder and BodyLanguage model FoxedUp or BRILLIANT.MOD
:root
   order TX TY TZ RX RY RZ
   axis XYZ
   position 0 0 0  
   orientation 0 0 0 
:bonedata
  begin
     id 1 
     name lhipjoint
     direction 0.567725 -0.736092 0.368589 
     length 2.42353 
     axis 0 0 0  XYZ
  end
  begin
     id 2 
     name lfemur
     direction 0.34202 -0.939693 0  
     length 7.24894  
     axis 0 0 20  XYZ
    dof rx ry rz
    limits (-160.0 20.0)
           (-70.0 70.0)
           (-60.0 70.0)
  end
  begin
     id 3 
     name ltibia
     direction 0.34202 -0.939693 0   
     length 7.6997   
     axis 0 0 20   XYZ
    dof rx
    limits (-10.0 170.0)
  end
  begin
     id 4 
     name lfoot
     direction 0.100767 -0.276854 0.955614   
     length 2.37556   
     axis -90 7.62852e-016 20   XYZ
    dof rx rz
    limits (-45.0 90.0)
           (-70.0 20.0)
  end
  begin
     id 5 
     name ltoes
     direction 1.53592e-011 -4.21894e-011 1   
     length 1.18363   
     axis -90 7.62852e-016 20   XYZ
    dof rx
    limits (-90.0 20.0)
  end
  begin
     id 6 
     name rhipjoint
     direction -0.556459 -0.742938 0.372017   
     length 2.4012  
     axis 0 0 0  XYZ 
  end
  begin
     id 7 
     name rfemur
     direction -0.34202 -0.939693 0   
     length 7.5119   
     axis 0 0 -20   XYZ
    dof rx ry rz
    limits (-160.0 20.0)
           (-70.0 70.0)
           (-70.0 60.0)
  end
  begin
     id 8 
     name rtibia
     direction -0.34202 -0.939693 0   
     length 7.50155   
     axis 0 0 -20   XYZ
    dof rx
    limits (-10.0 170.0)
 end
 begin
     id 9 
     name rfoot
     direction -0.118427 -0.325376 0.938139   
     length 2.32487  
     axis -90 -7.62852e-016 -20   XYZ
    dof rx rz
    limits (-45.0 90.0)
           (-20.0 70.0)
  end
  begin
     id 10 
     name rtoes
     direction -1.53525e-011 -4.21868e-011 1   
     length 1.15233   
     axis -90 -7.62852e-016 -20   XYZ
    dof rx
    limits (-90.0 20.0)
  end
  begin
     id 11 
     name lowerback
     direction 0.0287568 0.999577 -0.00434502   
     length 2.15243   
     axis 0 0 0   XYZ
    dof rx ry rz
    limits (-20.0 45.0)
           (-30.0 30.0)
           (-30.0 30.0)
  end
  begin
     id 12 
     name upperback
     direction 0.0294009 0.99956 0.00404628   
     length 2.15427   
     axis 0 0 0   XYZ
    dof rx ry rz
    limits (-20.0 45.0)
           (-30.0 30.0)
           (-30.0 30.0)
  end
  begin
     id 13 
     name thorax
     direction 0.0151014 0.999868 0.0059419   
     length 2.14898   
     axis 0 0 0   XYZ
    dof rx ry rz
    limits (-20.0 45.0)
           (-30.0 30.0)
           (-30.0 30.0)
  end
  begin
     id 14 
     name lowerneck
     direction -0.0249197 0.989906 0.139515   
     length 1.6861   
     axis 0 0 0   XYZ
    dof rx ry rz
    limits (-20.0 45.0)
           (-30.0 30.0)
           (-30.0 30.0)
  end
  begin
     id 15 
     name upperneck
     direction 0.0438463 0.988795 -0.142693   
     length 1.71276   
     axis 0 0 0   XYZ
    dof rx ry rz
    limits (-20.0 45.0)
           (-30.0 30.0)
           (-30.0 30.0)
  end
  begin
     id 16
     name head
     direction 0.0148499 0.997845 -0.0639186  
     length 1.7209  
     axis 0 0 0   XYZ
    dof rx ry rz
    limits (-20.0 45.0)
           (-30.0 30.0)
           (-30.0 30.0)
  end
  begin
     id 17 
     name lclavicle
     direction 0.940298 0.323464 -0.105876  
     length 3.9048  
     axis 0 0 0   XYZ
    dof ry rz
    limits (-20.0 10.0)
           (0.0 20.0)
  end
  begin
     id 18 
     name lhumerus
     direction 1 -4.48954e-011 -4.9675e-028   
     length 4.6851   
     axis 180 -30 -90   XYZ
    dof rx ry rz
    limits (-60.0 90.0)
           (-90.0 90.0)
           (-90.0 90.0)
  end
  begin
     id 19
     name lradius
     direction 1 -4.48992e-011 -1.03359e-026   
     length 3.39626   
     axis 180 -30 -90   XYZ
    dof rx
    limits (-10.0 170.0)
  end
  begin
     id 20
     name lwrist
     direction 1 -4.48906e-011 -1.67336e-026   
     length 1.69813   
     axis 9.90442e-015 90 90   XYZ
    dof ry
    limits (-180.0 0.0)
 end
  begin
     id 21 
     name lhand
     direction 1 -4.49006e-011 -3.34673e-026   
     length 0.486078   
     axis 2.1355e-014 90 90   XYZ
    dof rx rz
    limits (-90.0 90.0)
           (-45.0 45.0)
  end
  begin
     id 22 
     name lfingers
     direction 1 -4.48992e-011 -6.69345e-026   
     length 0.391889   
     axis 4.27099e-014 90 90   XYZ
    dof rx
    limits (0.0 90.0)
  end
  begin
     id 23
     name lthumb
     direction 0.707107 -6.34926e-011 0.707107   
     length 0.562676   
     axis -90 45 2.85299e-015   XYZ
    dof rx rz
    limits (-45.0 45.0)
           (-45.0 45.0)
  end
  begin
     id 24 
     name rclavicle
     direction -0.882459 0.414895 -0.221648   
     length 3.44646  
     axis 0 0 0   XYZ 
    dof ry rz
    limits (-10.0 20.0)
           (-20.0 0.0)
  end
  begin
     id 25 
     name rhumerus
     direction -1 -4.48962e-011 -2.37984e-027  
     length 5.55576   
     axis 180 30 90   XYZ
    dof rx ry rz
    limits (-90.0 60.0)
           (-90.0 90.0)
           (-90.0 90.0)
  end
  begin
     id 26 
     name rradius
     direction -1 -4.48982e-011 -6.86791e-027   
     length 3.32774   
     axis 180 30 90   XYZ
    dof rx
    limits (-10.0 170.0)
  end
  begin
     id 27 
     name rwrist
     direction -1 -4.48961e-011 -1.67336e-026   
     length 1.66387   
     axis 9.90442e-015 -90 -90   XYZ
    dof ry
    limits (-180.0 0.0)
  end
  begin
     id 28
     name rhand
     direction -1 -4.4897e-011 -3.34673e-026   
     length 0.507628   
     axis 2.1355e-014 -90 -90   XYZ
    dof rx rz
    limits (-90.0 90.0)
           (-45.0 45.0)
  end
  begin
     id 29
     name rfingers
     direction -1 -4.48854e-011 -6.69345e-026   
     length 0.409263   
     axis 4.27099e-014 -90 -90   XYZ
    dof rx
    limits (0.0 90.0)
  end
  begin
     id 30
     name rthumb
     direction -0.707107 -6.34913e-011 0.707107   
     length 0.587622   
     axis -90 -45 -2.85299e-015   XYZ
    dof rx rz
    limits (-45.0 45.0)
           (-45.0 45.0)
  end
:hierarchy
  begin
    root lhipjoint rhipjoint lowerback
    lhipjoint lfemur
    lfemur ltibia
    ltibia lfoot
    lfoot ltoes
    rhipjoint rfemur
    rfemur rtibia
    rtibia rfoot
    rfoot rtoes
    lowerback upperback
    upperback thorax
    thorax lowerneck lclavicle rclavicle
    lowerneck upperneck
    upperneck head
    lclavicle lhumerus
    lhumerus lradius
    lradius lwrist
    lwrist lhand lthumb
    lhand lfingers
    rclavicle rhumerus
    rhumerus rradius
    rradius rwrist
    rwrist rhand rthumb
    rhand rfingers
  end

#!OML:ASF E:\motion texture\Top Level 1\Subject 1\Session 1\male.ASF
:FULLY-SPECIFIED
:DEGREES
99
root 31.9163 17.1951 4.12497 145.192 -79.0477 -134.167
lowerback -0.366055 0.100037 5.50332
upperback -1.14934 0.131704 0.689536
thorax -0.966307 0.0111534 -2.37545
lowerneck -16.0751 -8.46807 -10.9393
upperneck 4.45634 -10.223 11.0723
head 5.07546 -4.62686 4.23284
rclavicle 5.56597e-015 2.46493e-014
rhumerus -23.9838 10.1226 -87.6134
rradius 50.1236
rwrist 7.40663
rhand -13.9346 -24.7162
rfingers 7.12502
rthumb 12.1921 -54.3409
lclavicle 5.56597e-015 2.46493e-014
lhumerus -26.1733 -0.851233 87.8588
lradius 51.6381
lwrist -11.43
lhand -19.2014 28.3943
lfingers 7.12502
lthumb 7.11076 58.2549
rfemur -1.65304 5.24275 30.9661
rtibia 28.923
rfoot -15.6174 -11.8071
rtoes -7.31024
lfemur -39.0804 -0.515329 -2.00312
ltibia 24.4731
lfoot -4.93513 1.4065
ltoes -12.2947
100
root 31.7832 17.1994 4.13275 146.192 -79.0595 -135.273
lowerback -0.264941 0.075249 5.27224
upperback -1.15689 0.10633 0.608823
thorax -1.03276 -0.000746101 -2.32925
lowerneck -16.0116 -8.44637 -10.9453
upperneck 4.32879 -10.2058 11.196
head 5.03232 -4.61616 4.27807
rclavicle -2.3059e-014 -5.56597e-015
rhumerus -23.5605 10.5602 -87.6082
rradius 51.0104
rwrist 7.46828
rhand -14.0615 -24.607
rfingers 7.12502
rthumb 12.0698 -54.239
lclavicle -2.3059e-014 -5.56597e-015
lhumerus -25.4237 -1.72522 88.3613
lradius 51.8026
lwrist -11.38
lhand -19.2925 28.6001
lfingers 7.12502
lthumb 7.02278 58.4636
rfemur -2.04455 4.94267 30.5985
rtibia 30.2266
rfoot -15.0934 -11.8163
rtoes -7.21633
lfemur -38.7644 -0.337097 -2.34965
ltibia 24.7916
lfoot -5.01506 0.959321
ltoes -12.1676
101
root 31.6494 17.2049 4.14046 147.187 -79.0759 -136.38
lowerback -0.165886 0.0445324 5.03268
upperback -1.16479 0.0720963 0.530323
thorax -1.09895 -0.0169064 -2.27581
lowerneck -15.9382 -8.42152 -10.9503
upperneck 4.20341 -10.1854 11.3204
head 4.98801 -4.60429 4.32398
rclavicle -1.51076e-014 2.94201e-014
rhumerus -23.1165 10.9943 -87.5889
rradius 51.8939
rwrist 7.53805
rhand -14.1915 -24.4929
rfingers 7.12502
rthumb 11.9444 -54.1321
lclavicle -1.51076e-014 2.94201e-014
lhumerus -24.6453 -2.61813 88.865
lradius 51.9385
lwrist -11.3087
lhand -19.3682 28.7985
lfingers 7.12502
lthumb 6.9497 58.6644
rfemur -2.48694 4.61606 30.2205
rtibia 31.5769
rfoot -14.5244 -11.8565
rtoes -7.03411
lfemur -38.4235 -0.134397 -2.71979
ltibia 25.1128
lfoot -5.10622 0.505858
ltoes -12.0367
102
root 31.5153 17.2117 4.14801 148.173 -79.0988 -137.483
lowerback -0.0629858 0.00707458 4.78395
upperback -1.1738 0.0282789 0.454537
thorax -1.16897 -0.0377739 -2.21419
lowerneck -15.864 -8.3947 -10.9549
upperneck 4.0865 -10.1629 11.4443
head 4.94594 -4.59138 4.36982
rclavicle -2.32578e-014 -6.36111e-015
rhumerus -22.6518 11.4246 -87.5543
rradius 52.7732
rwrist 7.61384
rhand -14.3236 -24.3713
rfingers 7.12502
rthumb 11.817 -54.0178
lclavicle -2.32578e-014 -6.36111e-015
lhumerus -23.8384 -3.52931 89.3688
lradius 52.0473
lwrist -11.2129
lhand -19.4306 28.9843
lfingers 7.12502
lthumb 6.88946 58.8522
rfemur -2.97977 4.26068 29.8331
rtibia 32.9699
rfoot -13.915 -11.9303
rtoes -6.7669
lfemur -38.0576 0.0860003 -3.10918
ltibia 25.4318
lfoot -5.21147 0.0528247
ltoes -11.9002
103
root 31.3808 17.2197 4.15537 149.151 -79.1279 -138.586
lowerback 0.046077 -0.0356444 4.52572
upperback -1.18364 -0.0231006 0.381207
thorax -1.24356 -0.0623166 -2.14442
lowerneck -15.7965 -8.36764 -10.9562
upperneck 3.98082 -10.1404 11.5658
head 4.90812 -4.57831 4.41403
rclavicle -5.66536e-015 -2.22639e-014
rhumerus -22.1656 11.8462 -87.5029
rradius 53.6481
rwrist 7.69371
rhand -14.4598 -24.246
rfingers 7.12502
rthumb 11.6857 -53.9001
lclavicle -5.66536e-015 -2.22639e-014
lhumerus -23.002 -4.46472 89.8717
lradius 52.1312
lwrist -11.0862
lhand -19.484 29.1691
lfingers 7.12502
lthumb 6.83794 59.0386
rfemur -3.52163 3.87786 29.4384
rtibia 34.3968
rfoot -13.2697 -12.0394
rtoes -6.42455
lfemur -37.6655 0.323153 -3.51437
ltibia 25.7407
lfoot -5.33032 -0.39742
ltoes -11.7669
104
root 31.2462 17.2289 4.16245 150.126 -79.1626 -139.688
lowerback 0.158645 -0.0852171 4.25773
upperback -1.19766 -0.0843507 0.311911
thorax -1.32472 -0.0917581 -2.06467
lowerneck -15.7147 -8.33659 -10.9598
upperneck 3.88001 -10.1135 11.6872
head 4.86919 -4.56354 4.45943
rclavicle -2.68359e-015 -1.11319e-014
rhumerus -21.6657 12.2659 -87.4371
rradius 54.5174
rwrist 7.77605
rhand -14.5992 -24.1224
rfingers 7.12502
rthumb 11.5513 -53.7841
lclavicle -2.68359e-015 -1.11319e-014
lhumerus -22.1455 -5.41441 90.3716
lradius 52.1915
lwrist -10.929
lhand -19.5008 29.3945
lfingers 7.12502
lthumb 6.82171 59.2646
rfemur -4.11145 3.46858 29.0378
rtibia 35.8514
rfoot -12.5956 -12.1842
rtoes -6.00588
lfemur -37.2474 0.574631 -3.93145
ltibia 26.0336
lfoot -5.46415 -0.842675
ltoes -11.6386
105
root 31.1117 17.2393 4.16912 151.108 -79.1998 -140.804
lowerback 0.275348 -0.139102 3.97965
upperback -1.21189 -0.152213 0.245229
thorax -1.40839 -0.124268 -1.97618
lowerneck -15.6295 -8.30366 -10.9622
upperneck 3.78513 -10.0848 11.8085
head 4.83131 -4.548 4.50482
rclavicle 2.38542e-014 -2.22639e-014
rhumerus -21.1454 12.678 -87.3559
rradius 55.3797
rwrist 7.85839
rhand -14.7403 -23.9942
rfingers 7.12502
rthumb 11.4152 -53.6635
lclavicle 2.38542e-014 -2.22639e-014
lhumerus -21.2605 -6.38201 90.8648
lradius 52.2286
lwrist -10.7368
lhand -19.4972 29.6295
lfingers 7.12502
lthumb 6.82524 59.4995
rfemur -4.74657 3.03708 28.6338
rtibia 37.3256
rfoot -11.9011 -12.3652
rtoes -5.52207
lfemur -36.7992 0.837964 -4.35527
ltibia 26.3032
lfoot -5.61352 -1.27811
ltoes -11.506
106
root 30.9774 17.2508 4.17512 152.114 -79.2341 -141.949
lowerback 0.398721 -0.195349 3.68814
upperback -1.22691 -0.224075 0.182314
thorax -1.4963 -0.158507 -1.87591
lowerneck -15.5452 -8.26918 -10.9638
upperneck 3.69863 -10.0544 11.9285
head 4.79584 -4.53161 4.54974
rclavicle 4.05521e-014 1.19271e-014
rhumerus -20.6059 13.0828 -87.2589
rradius 56.2356
rwrist 7.93831
rhand -14.8882 -23.868
rfingers 7.12502
rthumb 11.2726 -53.5451
lclavicle 4.05521e-014 1.19271e-014
lhumerus -20.3479 -7.36585 91.3495
lradius 52.2441
lwrist -10.5048
lhand -19.468 29.8739
lfingers 7.12502
lthumb 6.85342 59.7429
rfemur -5.42618 2.58975 28.2295
rtibia 38.8133
rfoot -11.1972 -12.5809
rtoes -4.984
lfemur -36.3186 1.11945 -4.78215
ltibia 26.5428
lfoot -5.77551 -1.70598
ltoes -11.379
107
root 30.8433 17.2631 4.18084 153.093 -79.2827 -143.068
lowerback 0.518233 -0.25994 3.39279
upperback -1.24085 -0.308414 0.120467
thorax -1.58106 -0.19866 -1.77184
lowerneck -15.456 -8.2328 -10.9643
upperneck 3.61546 -10.0223 12.05
head 4.76049 -4.51452 4.59522
rclavicle -7.45443e-015 -7.95139e-015
rhumerus -20.0442 13.4775 -87.1477
rradius 57.0822
rwrist 8.01582
rhand -15.0372 -23.7428
rfingers 7.12502
rthumb 11.1289 -53.4277
lclavicle -7.45443e-015 -7.95139e-015
lhumerus -19.4055 -8.36579 91.8211
lradius 52.2395
lwrist -10.2315
lhand -19.4171 30.1208
lfingers 7.12502
lthumb 6.90251 59.9883
rfemur -6.14946 2.10882 27.8237
rtibia 40.3001
rfoot -10.489 -12.8341
rtoes -4.40149
lfemur -35.8198 1.39883 -5.21345
ltibia 26.7552
lfoot -5.94918 -2.12794
ltoes -11.249
108
root 30.7096 17.2763 4.18607 154.065 -79.3381 -144.181
lowerback 0.645201 -0.330554 3.08882
upperback -1.25908 -0.401651 0.0633915
thorax -1.67414 -0.243108 -1.65744
lowerneck -15.3646 -8.19483 -10.9663
upperneck 3.54291 -9.9882 12.1687
head 4.72772 -4.49657 4.64024
rclavicle 2.18663e-015 -1.74931e-014
rhumerus -19.4699 13.8652 -87.0204
rradius 57.9208
rwrist 8.08822
rhand -15.1861 -23.6176
rfingers 7.12502
rthumb 10.9852 -53.3102
lclavicle 2.18663e-015 -1.74931e-014
lhumerus -18.4429 -9.37586 92.282
lradius 52.2173
lwrist -9.91458
lhand -19.3444 30.3726
lfingers 7.12502
lthumb 6.97271 60.2378
rfemur -6.91357 1.60252 27.4204
rtibia 41.7799
rfoot -9.78743 -13.1227
rtoes -3.78403
lfemur -35.2986 1.68156 -5.64411
ltibia 26.9362
lfoot -6.13117 -2.54241
ltoes -11.134
109
root 30.5765 17.2902 4.1907 155.026 -79.3988 -145.285
lowerback 0.774416 -0.406039 2.77951
upperback -1.27641 -0.50257 0.00916952
thorax -1.76708 -0.291046 -1.53651
lowerneck -15.2753 -8.15591 -10.9673
upperneck 3.47645 -9.95314 12.2875
head 4.69696 -4.47806 4.68504
rclavicle -1.35174e-014 -1.82882e-014
rhumerus -18.8744 14.2407 -86.8781
rradius 58.7486
rwrist 8.15505
rhand -15.3379 -23.4965
rfingers 7.12502
rthumb 10.8388 -53.1968
lclavicle -1.35174e-014 -1.82882e-014
lhumerus -17.4516 -10.3983 92.7261
lradius 52.1781
lwrist -9.55098
lhand -19.2467 30.6349
lfingers 7.12502
lthumb 7.06699 60.4969
rfemur -7.71525 1.07204 27.0232
rtibia 43.2422
rfoot -9.10163 -13.445
rtoes -3.13886
lfemur -34.756 1.96946 -6.07096
ltibia 27.0843
lfoot -6.32667 -2.949
ltoes -11.0223
110
root 30.4442 17.3048 4.19468 155.973 -79.4655 -146.374
lowerback 0.906255 -0.487029 2.46613
upperback -1.29469 -0.611999 -0.0417802
thorax -1.86194 -0.342941 -1.40927
lowerneck -15.1845 -8.11549 -10.9692
upperneck 3.4158 -9.9164 12.4072
head 4.66765 -4.45873 4.73047
rclavicle -3.91606e-014 -1.98785e-014
rhumerus -18.2619 14.6059 -86.722
rradius 59.5659
rwrist 8.21518
rhand -15.4915 -23.3779
rfingers 7.12502
rthumb 10.6907 -53.0859
lclavicle -3.91606e-014 -1.98785e-014
lhumerus -16.4356 -11.4289 93.1508
lradius 52.1234
lwrist -9.13813
lhand -19.1274 30.8926
lfingers 7.12502
lthumb 7.18219 60.7507
rfemur -8.55372 0.516704 26.6346
rtibia 44.6786
rfoot -8.43712 -13.8013
rtoes -2.48289
lfemur -34.1965 2.26272 -6.49221
ltibia 27.201
lfoot -6.53602 -3.34874
ltoes -10.923
111
root 30.3126 17.32 4.19797 156.909 -79.537 -147.451
lowerback 1.04276 -0.572462 2.1488
upperback -1.31419 -0.728508 -0.0892553
thorax -1.95992 -0.398063 -1.27553
lowerneck -15.0948 -8.07432 -10.971
upperneck 3.36149 -9.87886 12.5265
head 4.64029 -4.43898 4.77568
rclavicle 4.96962e-015 9.54166e-015
rhumerus -17.6336 14.9583 -86.5516
rradius 60.372
rwrist 8.26781
rhand -15.6481 -23.2657
rfingers 7.12502
rthumb 10.5396 -52.9815
lclavicle 4.96962e-015 9.54166e-015
lhumerus -15.3954 -12.468 93.5561
lradius 52.052
lwrist -8.6656
lhand -19.0013 31.1365
lfingers 7.12502
lthumb 7.3039 60.9905
rfemur -9.42511 -0.0625544 26.2565
rtibia 46.0805
rfoot -7.80136 -14.1892
rtoes -1.82815
lfemur -33.621 2.56126 -6.90572
ltibia 27.286
lfoot -6.7609 -3.74246
ltoes -10.8405
112
root 30.1818 17.3356 4.20047 157.816 -79.6149 -148.497
lowerback 1.18005 -0.663001 1.83035
upperback -1.33268 -0.853065 -0.132855
thorax -2.05647 -0.456842 -1.13644
lowerneck -15.0065 -8.03249 -10.9735
upperneck 3.31126 -9.84052 12.6471
head 4.6144 -4.41876 4.82145
rclavicle -5.66536e-015 1.90833e-014
rhumerus -16.9866 15.2963 -86.3671
rradius 61.1653
rwrist 8.31234
rhand -15.8042 -23.1658
rfingers 7.12502
rthumb 10.389 -52.8891
lclavicle -5.66536e-015 1.90833e-014
lhumerus -14.3276 -13.5102 93.9372
lradius 51.9675
lwrist -8.15453
lhand -18.838 31.3954
lfingers 7.12502
lthumb 7.46157 61.2438
rfemur -10.3266 -0.665077 25.894
rtibia 47.4397
rfoot -7.2055 -14.606
rtoes -1.17659
lfemur -33.033 2.86359 -7.30742
ltibia 27.3413
lfoot -7.00085 -4.13227
ltoes -10.7754
113
root 30.0523 17.3516 4.20214 158.702 -79.6997 -149.517
lowerback 1.31775 -0.758499 1.51109
upperback -1.35127 -0.985487 -0.173815
thorax -2.15243 -0.519215 -0.993413
lowerneck -14.9181 -7.98987 -10.9776
upperneck 3.26423 -9.80142 12.7719
head 4.5897 -4.39804 4.86882
rclavicle 2.3059e-014 -7.15625e-015
rhumerus -16.3231 15.6187 -86.1709
rradius 61.945
rwrist 8.34874
rhand -15.9697 -23.078
rfingers 7.12502
rthumb 10.2294 -52.8092
lclavicle 2.3059e-014 -7.15625e-015
lhumerus -13.2331 -14.5555 94.291
lradius 51.869
lwrist -7.59533
lhand -18.6547 31.6559
lfingers 7.12502
lthumb 7.6384 61.498
rfemur -11.2578 -1.28986 25.5478
rtibia 48.7464
rfoot -6.64961 -15.0504
rtoes -0.543718
lfemur -32.4391 3.16962 -7.69757
ltibia 27.3702
lfoot -7.25541 -4.5216
ltoes -10.7441
